<?xml version="1.0" encoding="UTF-8" standalone="no"?>
<!DOCTYPE svg PUBLIC "-//W3C//DTD SVG 1.1//EN" "http://www.w3.org/Graphics/SVG/1.1/DTD/svg11.dtd">
<!-- Created with Vectornator (http://vectornator.io/) -->
<svg height="100%" stroke-miterlimit="10" style="fill-rule:nonzero;clip-rule:evenodd;stroke-linecap:round;stroke-linejoin:round;" version="1.1" viewBox="0 0 841.995 283.5" width="100%" xml:space="preserve" xmlns="http://www.w3.org/2000/svg" xmlns:xlink="http://www.w3.org/1999/xlink">
<defs/>
<g id="圖層1">
<g opacity="1">
<path d="M73.3036 135.155L52.8069 142.871L73.3036 150.515L73.3036 154.928L47.8154 144.849L47.8154 140.846L73.3036 130.766L73.3036 135.155Z" fill="#007ccd" fill-rule="nonzero" opacity="1" stroke="none"/>
<path d="M100.769 141.593L100.769 158.328L96.3082 158.328L96.3082 141.593C96.3082 139.166 95.8822 137.381 95.0301 136.24C94.1781 135.099 92.8438 134.528 91.0272 134.528C88.9535 134.528 87.3579 135.263 86.2407 136.734C85.1234 138.205 84.5648 140.315 84.5648 143.064L84.5648 158.328L80.1278 158.328L80.1278 120.807L84.5648 120.807L84.5648 135.372C85.3525 133.829 86.4215 132.659 87.7719 131.863C89.1223 131.068 90.7218 130.67 92.5705 130.67C95.3195 130.67 97.3732 131.574 98.7316 133.383C100.09 135.191 100.769 137.928 100.769 141.593Z" fill="#007ccd" fill-rule="nonzero" opacity="1" stroke="none"/>
<path d="M111.669 154.253L119.24 154.253L119.24 127.053L110.174 131.417L110.174 126.739L119.192 122.447L124.063 122.447L124.063 154.253L131.538 154.253L131.538 158.328L111.669 158.328L111.669 154.253Z" fill="#007ccd" fill-rule="nonzero" opacity="1" stroke="none"/>
<path d="M181.96 148.562C181.96 150.556 182.326 152.059 183.057 153.071C183.789 154.084 184.87 154.591 186.301 154.591L191.485 154.591L191.485 158.328L185.867 158.328C183.214 158.328 181.16 157.48 179.706 155.784C178.251 154.088 177.523 151.681 177.523 148.562L177.523 124.135L170.41 124.135L170.41 120.663L181.96 120.663L181.96 148.562Z" fill="#d05400" fill-rule="nonzero" opacity="1" stroke="none"/>
<path d="M211.283 144.752L209.812 144.752C207.223 144.752 205.274 145.206 203.964 146.115C202.654 147.023 201.999 148.377 201.999 150.178C201.999 151.801 202.489 153.063 203.47 153.964C204.45 154.864 205.809 155.314 207.545 155.314C209.989 155.314 211.91 154.466 213.308 152.77C214.707 151.074 215.414 148.731 215.43 145.741L215.43 144.752L211.283 144.752ZM219.891 142.92L219.891 158.328L215.43 158.328L215.43 154.325C214.482 155.933 213.288 157.119 211.849 157.882C210.41 158.646 208.662 159.028 206.605 159.028C203.856 159.028 201.661 158.252 200.021 156.701C198.382 155.149 197.562 153.071 197.562 150.467C197.562 147.461 198.571 145.178 200.588 143.619C202.606 142.059 205.568 141.28 209.474 141.28L215.43 141.28L215.43 140.581C215.414 138.426 214.868 136.863 213.79 135.89C212.713 134.918 210.993 134.431 208.63 134.431C207.119 134.431 205.592 134.649 204.048 135.083C202.505 135.517 201.002 136.152 199.539 136.988L199.539 132.551C201.179 131.924 202.75 131.453 204.253 131.14C205.757 130.826 207.215 130.67 208.63 130.67C210.865 130.67 212.774 130.999 214.357 131.658C215.941 132.318 217.223 133.306 218.203 134.624C218.814 135.428 219.248 136.421 219.505 137.602C219.763 138.784 219.891 140.556 219.891 142.92Z" fill="#d05400" fill-rule="nonzero" opacity="1" stroke="none"/>
<path d="M249.431 141.593L249.431 158.328L244.97 158.328L244.97 141.593C244.97 139.166 244.544 137.381 243.692 136.24C242.839 135.099 241.505 134.528 239.689 134.528C237.615 134.528 236.019 135.263 234.902 136.734C233.785 138.205 233.226 140.315 233.226 143.064L233.226 158.328L228.789 158.328L228.789 131.321L233.226 131.321L233.226 135.372C234.014 133.829 235.083 132.659 236.433 131.863C237.784 131.068 239.383 130.67 241.232 130.67C243.981 130.67 246.035 131.574 247.393 133.383C248.751 135.191 249.431 137.928 249.431 141.593Z" fill="#d05400" fill-rule="nonzero" opacity="1" stroke="none"/>
<path d="M274.509 144.608C274.509 141.28 273.966 138.752 272.881 137.024C271.796 135.296 270.217 134.431 268.143 134.431C265.973 134.431 264.317 135.296 263.175 137.024C262.034 138.752 261.463 141.28 261.463 144.608C261.463 147.935 262.038 150.471 263.187 152.215C264.337 153.96 266.005 154.832 268.191 154.832C270.233 154.832 271.796 153.956 272.881 152.203C273.966 150.451 274.509 147.919 274.509 144.608ZM278.946 156.592C278.946 160.643 277.989 163.714 276.076 165.804C274.163 167.893 271.35 168.938 267.636 168.938C266.415 168.938 265.137 168.826 263.802 168.601C262.468 168.376 261.134 168.046 259.8 167.612L259.8 163.223C261.375 163.963 262.806 164.509 264.092 164.863C265.378 165.217 266.559 165.394 267.636 165.394C270.032 165.394 271.776 164.743 272.869 163.44C273.962 162.138 274.509 160.072 274.509 157.243L274.509 157.05L274.509 154.036C273.802 155.547 272.837 156.672 271.615 157.412C270.393 158.151 268.906 158.521 267.154 158.521C264.003 158.521 261.487 157.259 259.607 154.735C257.726 152.211 256.785 148.835 256.785 144.608C256.785 140.363 257.726 136.98 259.607 134.456C261.487 131.932 264.003 130.67 267.154 130.67C268.89 130.67 270.361 131.015 271.567 131.707C272.773 132.398 273.753 133.467 274.509 134.914L274.509 131.417L278.946 131.417L278.946 156.592Z" fill="#d05400" fill-rule="nonzero" opacity="1" stroke="none"/>
<path d="M285.674 146.271L311.162 146.271L311.162 150.347L285.674 150.347L285.674 146.271ZM285.674 134.914L311.162 134.914L311.162 138.989L285.674 138.989L285.674 134.914Z" fill="#007ccd" fill-rule="nonzero" opacity="1" stroke="none"/>
<path d="M335.565 135.01L329.488 135.01L329.488 130.019L334.215 120.807L337.928 120.807L335.565 130.019L335.565 135.01ZM324.497 135.01L318.372 135.01L318.372 130.019L323.17 120.807L326.86 120.807L324.497 130.019L324.497 135.01Z" fill="#69287a" fill-rule="nonzero" opacity="1" stroke="none"/>
<path d="M348.49 131.273L368.094 131.273L368.094 135.324L352.589 154.711L368.094 154.711L368.094 158.328L347.911 158.328L347.911 154.229L363.416 134.817L348.49 134.817L348.49 131.273Z" fill="#69287a" fill-rule="nonzero" opacity="1" stroke="none"/>
<path d="M398.092 141.593L398.092 158.328L393.631 158.328L393.631 141.593C393.631 139.166 393.205 137.381 392.353 136.24C391.501 135.099 390.167 134.528 388.35 134.528C386.276 134.528 384.681 135.263 383.563 136.734C382.446 138.205 381.888 140.315 381.888 143.064L381.888 158.328L377.451 158.328L377.451 120.807L381.888 120.807L381.888 135.372C382.675 133.829 383.744 132.659 385.095 131.863C386.445 131.068 388.045 130.67 389.893 130.67C392.642 130.67 394.696 131.574 396.054 133.383C397.413 135.191 398.092 137.928 398.092 141.593Z" fill="#69287a" fill-rule="nonzero" opacity="1" stroke="none"/>
<path d="M404.94 140.87L430.501 140.87L430.501 144.945L404.94 144.945L404.94 140.87Z" fill="#69287a" fill-rule="nonzero" opacity="1" stroke="none"/>
<path d="M433.346 122.326L460.812 122.326L460.812 126.426L449.551 126.426L449.551 158.328L444.656 158.328L444.656 126.426L433.346 126.426L433.346 122.326Z" fill="#69287a" fill-rule="nonzero" opacity="1" stroke="none"/>
<path d="M461.945 122.326L466.696 122.326L470.144 151.552L474.243 132.213L479.331 132.213L483.479 151.601L486.927 122.326L491.678 122.326L486.3 158.328L481.694 158.328L476.799 136.939L471.928 158.328L467.323 158.328L461.945 122.326Z" fill="#69287a" fill-rule="nonzero" opacity="1" stroke="none"/>
<path d="M510.197 120.807L516.274 120.807L516.274 125.775L511.523 135.01L507.834 135.01L510.197 125.775L510.197 120.807ZM499.129 120.807L505.205 120.807L505.205 125.775L500.479 135.01L496.766 135.01L499.129 125.775L499.129 120.807Z" fill="#007ccd" fill-rule="nonzero" opacity="1" stroke="none"/>
<path d="M523.532 135.155L523.532 130.766L549.02 140.846L549.02 144.849L523.532 154.928L523.532 150.515L544.028 142.871L523.532 135.155Z" fill="#007ccd" fill-rule="nonzero" opacity="1" stroke="none"/>
<path d="M564.032 136.747C565.266 138.673 566.748 141.241 568.526 144.451L570.6 141.34C568.427 138.278 566.204 135.512 564.032 132.994L564.032 130.179L569.415 130.179L569.415 126.919L564.032 126.919L564.032 117.981L560.723 117.981L560.723 126.919L554.648 126.919L554.648 130.179L560.476 130.179C559.044 136.303 556.624 141.735 553.167 146.575L554.698 150.476C557.167 146.525 559.192 142.081 560.723 137.241L560.723 163.168L564.032 163.168L564.032 136.747ZM571.538 126.524L571.538 138.08L596.724 138.08L596.724 126.524L589.415 126.524L589.415 122.87L597.613 122.87L597.613 119.808L570.254 119.808L570.254 122.87L578.798 122.87L578.798 126.524L571.538 126.524ZM586.452 122.87L586.452 126.524L581.761 126.524L581.761 122.87L586.452 122.87ZM593.613 135.315L589.169 135.315L589.169 129.24L593.613 129.24L593.613 135.315ZM586.403 135.315L581.81 135.315L581.81 129.24L586.403 129.24L586.403 135.315ZM579.045 135.315L574.649 135.315L574.649 129.24L579.045 129.24L579.045 135.315ZM572.822 141.142L572.822 144.204L595.737 144.204L595.737 141.142L572.822 141.142ZM570.55 147.562L570.55 150.624L582.205 150.624L582.205 163.119L585.465 163.119L585.465 150.624L597.712 150.624L597.712 147.562L570.55 147.562ZM576.131 152.55C573.958 155.513 571.341 158.081 568.229 160.254L570.254 162.872C573.464 160.501 576.18 157.686 578.403 154.526L576.131 152.55ZM591.341 152.6L589.169 154.674C592.23 157.538 594.65 160.205 596.379 162.724L598.749 160.402C596.774 157.834 594.305 155.217 591.341 152.6Z" fill="#000000" fill-rule="nonzero" opacity="1" stroke="none"/>
<path d="M635.985 159.118C626.158 159.118 619.837 158.674 617.071 157.785C616.873 157.686 616.725 157.637 616.528 157.587L616.528 152.056L623.195 152.056L623.195 148.846L616.528 148.846L616.528 143.365L624.133 143.365L624.133 140.204L603.786 140.204L603.786 143.365L613.367 143.365L613.367 155.76C611.836 154.575 610.453 152.995 609.219 150.97C609.416 149.488 609.565 147.957 609.663 146.377L606.601 145.982C606.354 151.513 604.922 156.452 602.354 160.896L604.824 163.119C606.404 160.551 607.638 157.686 608.429 154.624C610.404 157.489 612.626 159.464 615.194 160.551C618.059 161.835 625.269 162.477 636.776 162.477L647.048 162.477L647.64 158.921C645.072 159.02 641.22 159.118 635.985 159.118ZM606.206 119.907L606.206 136.945L622.405 136.945L622.405 119.907L606.206 119.907ZM619.046 134.031L609.565 134.031L609.565 129.784L619.046 129.784L619.046 134.031ZM609.565 127.018L609.565 122.87L619.046 122.87L619.046 127.018L609.565 127.018ZM626.849 126.771L626.849 149.34L644.974 149.34L644.974 126.771L636.282 126.771C636.677 125.537 636.973 124.302 637.171 123.018L646.9 123.018L646.9 119.956L625.17 119.956L625.17 123.018L633.763 123.018C633.566 124.302 633.269 125.586 632.874 126.771L626.849 126.771ZM641.764 146.525L630.109 146.525L630.109 142.574L641.764 142.574L641.764 146.525ZM630.109 139.858L630.109 136.253L641.764 136.253L641.764 139.858L630.109 139.858ZM630.109 133.537L630.109 129.636L641.764 129.636L641.764 133.537L630.109 133.537ZM631.887 149.587C629.812 151.562 627.294 153.34 624.331 154.871L626.158 157.341C629.319 155.661 631.985 153.785 634.158 151.612L631.887 149.587ZM639.245 149.39L637.171 151.365C640.331 153.39 642.751 155.316 644.529 157.192L646.751 154.921C644.727 153.093 642.208 151.266 639.245 149.39Z" fill="#000000" fill-rule="nonzero" opacity="1" stroke="none"/>
<path d="M677.522 135.155L657.026 142.871L677.522 150.515L677.522 154.928L652.034 144.849L652.034 140.846L677.522 130.766L677.522 135.155Z" fill="#007ccd" fill-rule="nonzero" opacity="1" stroke="none"/>
<path d="M701.081 122.326L705.663 122.326L686.71 162.91L682.104 162.91L701.081 122.326Z" fill="#007ccd" fill-rule="nonzero" opacity="1" stroke="none"/>
<path d="M734.72 141.593L734.72 158.328L730.259 158.328L730.259 141.593C730.259 139.166 729.833 137.381 728.981 136.24C728.129 135.099 726.795 134.528 724.978 134.528C722.904 134.528 721.309 135.263 720.192 136.734C719.074 138.205 718.516 140.315 718.516 143.064L718.516 158.328L714.079 158.328L714.079 120.807L718.516 120.807L718.516 135.372C719.303 133.829 720.372 132.659 721.723 131.863C723.073 131.068 724.673 130.67 726.521 130.67C729.27 130.67 731.324 131.574 732.683 133.383C734.041 135.191 734.72 137.928 734.72 141.593Z" fill="#007ccd" fill-rule="nonzero" opacity="1" stroke="none"/>
<path d="M745.62 154.253L753.191 154.253L753.191 127.053L744.125 131.417L744.125 126.739L753.143 122.447L758.014 122.447L758.014 154.253L765.489 154.253L765.489 158.328L745.62 158.328L745.62 154.253Z" fill="#007ccd" fill-rule="nonzero" opacity="1" stroke="none"/>
<path d="M770.963 135.155L770.963 130.766L796.451 140.846L796.451 144.849L770.963 154.928L770.963 150.515L791.46 142.871L770.963 135.155Z" fill="#007ccd" fill-rule="nonzero" opacity="1" stroke="none"/>
<g opacity="1">
<path d="M47.5076 213.488L549.304 213.488" fill="#007ccd" fill-rule="nonzero" stroke="none"/>
<path d="M547.274 213.488C530.388 213.488 49.5392 213.488 49.5392 213.488" fill="none" stroke="#007ccd" stroke-linecap="butt" stroke-linejoin="round" stroke-width="4.04297"/>
<g fill="#007ccd" stroke="none">
<path d="M51.5607 201.359L47.5177 201.359L47.5177 225.617L51.5607 225.617L51.5607 201.359Z" fill="#007ccd"/>
<path d="M545.252 225.617L549.295 225.617L549.295 201.359L545.252 201.359L545.252 225.617Z" fill="#007ccd"/>
</g>
</g>
<g opacity="1">
<path d="M652.132 213.488L796.487 213.488" fill="#007ccd" fill-rule="nonzero" stroke="none"/>
<path d="M794.464 213.488C786.161 213.488 654.155 213.488 654.155 213.488" fill="none" stroke="#007ccd" stroke-linecap="butt" stroke-linejoin="round" stroke-width="4.04243"/>
<g fill="#007ccd" stroke="none">
<path d="M656.176 201.36L652.134 201.36L652.134 225.615L656.176 225.615L656.176 201.36Z" fill="#007ccd"/>
<path d="M792.443 225.615L796.485 225.615L796.485 201.36L792.443 201.36L792.443 225.615Z" fill="#007ccd"/>
</g>
</g>
<g fill="#007ccd" opacity="1" stroke="none">
<path d="M252.382 248.012L252.382 249.612L255.582 249.612C255.457 250.462 255.257 251.237 254.982 251.887C254.482 252.887 253.607 253.687 252.382 254.287L253.282 255.712C254.682 255.062 255.707 254.137 256.307 252.962C256.757 252.062 257.057 250.937 257.207 249.612L261.107 249.612L261.107 255.362L262.757 255.362L262.757 249.612L265.982 249.612L265.982 248.012L262.757 248.012L262.757 245.137L265.182 245.137L265.182 243.587L253.057 243.587L253.057 245.137L255.707 245.137L255.707 248.012L252.382 248.012ZM261.107 248.012L257.332 248.012L257.332 245.137L261.107 245.137L261.107 248.012ZM250.732 238.487L256.357 238.487L256.357 240.312L250.732 240.312L250.732 238.487ZM256.357 237.212L250.732 237.212L250.732 235.287L256.357 235.287L256.357 237.212ZM261.957 238.487L267.732 238.487L267.732 240.262L261.957 240.262L261.957 238.487ZM267.732 237.212L261.957 237.212L261.957 235.337L267.732 235.337L267.732 237.212ZM258.107 233.862L248.932 233.862L248.932 255.837L250.732 255.837L250.732 241.762L258.107 241.762L258.107 233.862ZM267.732 241.687L267.732 252.712C267.732 253.662 267.357 254.162 266.607 254.162C265.857 254.162 265.032 254.112 264.132 254.062L264.557 255.662C265.457 255.712 266.357 255.737 267.257 255.737C268.757 255.737 269.507 254.912 269.507 253.262L269.507 233.887L260.207 233.887L260.207 241.687L267.732 241.687Z"/>
<path d="M275.857 233.037C275.657 234.712 275.432 236.337 275.182 237.912L272.882 237.912L272.882 239.637L274.882 239.637C274.432 242.162 273.907 244.512 273.307 246.687C274.457 247.787 275.532 248.837 276.532 249.862C275.582 251.762 274.382 253.362 272.907 254.712L274.032 256.137C275.532 254.737 276.757 253.087 277.757 251.187C278.732 252.237 279.557 253.237 280.257 254.162L281.457 252.762C280.707 251.762 279.732 250.662 278.557 249.437C279.757 246.487 280.457 243.012 280.657 238.962L280.657 237.912L276.957 237.912C277.182 236.462 277.407 234.887 277.632 233.187L275.857 233.037ZM277.282 248.137C276.632 247.487 275.957 246.837 275.232 246.162C275.732 244.437 276.207 242.262 276.682 239.637L278.957 239.637C278.782 242.812 278.232 245.637 277.282 248.137ZM293.857 245.437L282.757 245.437L282.757 256.087L284.482 256.087L284.482 254.587L292.132 254.587L292.132 256.087L293.857 256.087L293.857 245.437ZM284.482 252.887L284.482 247.087L292.132 247.087L292.132 252.887L284.482 252.887ZM281.782 243.187C285.857 242.937 289.557 242.562 292.882 242.087C293.182 242.712 293.457 243.362 293.757 244.037L295.432 243.237C294.232 240.612 292.932 238.212 291.557 236.012L290.007 236.762C290.732 237.912 291.432 239.187 292.132 240.562C289.607 240.962 286.932 241.262 284.132 241.437C285.632 239.512 287.107 236.937 288.607 233.687L286.907 233.112C284.757 238.012 282.957 240.812 281.507 241.562L281.782 243.187Z"/>
<path d="M303.282 242.637C303.907 243.612 304.657 244.912 305.557 246.537L306.607 244.962C305.507 243.412 304.382 242.012 303.282 240.737L303.282 239.312L306.007 239.312L306.007 237.662L303.282 237.662L303.282 233.137L301.607 233.137L301.607 237.662L298.532 237.662L298.532 239.312L301.482 239.312C300.757 242.412 299.532 245.162 297.782 247.612L298.557 249.587C299.807 247.587 300.832 245.337 301.607 242.887L301.607 256.012L303.282 256.012L303.282 242.637ZM307.082 237.462L307.082 243.312L319.832 243.312L319.832 237.462L316.132 237.462L316.132 235.612L320.282 235.612L320.282 234.062L306.432 234.062L306.432 235.612L310.757 235.612L310.757 237.462L307.082 237.462ZM314.632 235.612L314.632 237.462L312.257 237.462L312.257 235.612L314.632 235.612ZM318.257 241.912L316.007 241.912L316.007 238.837L318.257 238.837L318.257 241.912ZM314.607 241.912L312.282 241.912L312.282 238.837L314.607 238.837L314.607 241.912ZM310.882 241.912L308.657 241.912L308.657 238.837L310.882 238.837L310.882 241.912ZM307.732 244.862L307.732 246.412L319.332 246.412L319.332 244.862L307.732 244.862ZM306.582 248.112L306.582 249.662L312.482 249.662L312.482 255.987L314.132 255.987L314.132 249.662L320.332 249.662L320.332 248.112L306.582 248.112ZM309.407 250.637C308.307 252.137 306.982 253.437 305.407 254.537L306.432 255.862C308.057 254.662 309.432 253.237 310.557 251.637L309.407 250.637ZM317.107 250.662L316.007 251.712C317.557 253.162 318.782 254.512 319.657 255.787L320.857 254.612C319.857 253.312 318.607 251.987 317.107 250.662Z"/>
<path d="M345.582 249.087L343.782 248.487C343.682 250.512 343.507 251.862 343.257 252.537C342.982 253.237 342.407 253.587 341.507 253.587L336.557 253.587C335.907 253.562 335.582 253.212 335.582 252.562L335.582 244.112L343.807 244.112L343.807 234.162L333.107 234.162L333.107 235.912L342.032 235.912L342.032 242.362L333.807 242.362L333.807 253.237C333.807 254.637 334.482 255.337 335.832 255.337L341.807 255.337C343.182 255.337 344.107 254.937 344.557 254.162C345.032 253.387 345.382 251.687 345.582 249.087ZM325.407 254.487L329.807 254.487L329.807 255.662L331.532 255.662L331.532 247.237L323.682 247.237L323.682 256.062L325.407 256.062L325.407 254.487ZM329.807 252.837L325.407 252.837L325.407 248.862L329.807 248.862L329.807 252.837ZM322.932 236.412L322.932 238.087L332.207 238.087L332.207 236.412L327.782 236.412L328.657 236.087C328.332 235.187 327.882 234.162 327.307 233.062L325.582 233.537C326.132 234.437 326.607 235.412 327.007 236.412L322.932 236.412ZM323.882 240.062L323.882 241.662L331.307 241.662L331.307 240.062L323.882 240.062ZM323.882 243.512L323.882 245.137L331.307 245.137L331.307 243.512L323.882 243.512Z"/>
</g>
<g fill="#007ccd" opacity="1" stroke="none">
<path d="M681.985 249.737C681.885 251.787 681.585 253.587 681.085 255.187L682.71 255.662C683.185 254.012 683.485 252.087 683.61 249.937L681.985 249.737ZM686.26 249.362L684.785 249.687C685.085 251.187 685.335 252.887 685.56 254.837L687.235 254.462C686.935 252.612 686.61 250.912 686.26 249.362ZM688.735 243.012L687.31 243.462C687.56 244.187 687.81 244.937 688.06 245.712C686.61 246.087 685.185 246.387 683.785 246.637C685.335 244.937 687.285 241.987 689.685 237.787L688.01 237.187C687.41 238.262 686.86 239.287 686.31 240.237C685.26 240.412 684.185 240.562 683.135 240.687C684.385 238.937 685.635 236.612 686.86 233.737L685.135 233.062C684.185 235.712 683.085 238.087 681.785 240.137C681.56 240.462 681.31 240.687 681.035 240.812L681.485 242.462C682.785 242.262 684.085 242.062 685.335 241.862C684.035 243.962 682.935 245.462 682.01 246.362C681.785 246.562 681.51 246.737 681.185 246.862L681.66 248.512C683.81 248.237 686.085 247.762 688.435 247.062C688.535 247.462 688.635 247.887 688.735 248.312L690.235 247.912C689.785 246.062 689.285 244.437 688.735 243.012ZM689.16 248.712L687.76 249.162C688.285 250.462 688.76 251.937 689.21 253.587L690.71 252.937C690.26 251.437 689.76 250.012 689.16 248.712ZM689.935 236.362L689.935 238.087L695.985 238.087L695.985 241.887L690.61 241.887L690.61 243.612L703.185 243.612L703.185 241.887L697.76 241.887L697.76 238.087L703.735 238.087L703.735 236.362L697.76 236.362L697.76 233.162L695.985 233.162L695.985 236.362L689.935 236.362ZM702.385 246.037L691.485 246.037L691.485 256.062L693.235 256.062L693.235 254.912L700.635 254.912L700.635 256.062L702.385 256.062L702.385 246.037ZM693.235 253.212L693.235 247.737L700.635 247.737L700.635 253.212L693.235 253.212Z"/>
<path d="M706.635 235.712L706.635 237.437L716.41 237.437L716.41 239.887L708.585 239.887L708.585 246.962L714.86 246.962C712.985 249.712 709.96 251.962 705.81 253.712L706.86 255.362C711.285 253.162 714.435 250.362 716.335 246.962L716.41 246.962L716.41 256.037L718.26 256.037L718.26 246.962L718.335 246.962C720.135 250.062 723.235 252.837 727.66 255.312L728.885 253.762C724.635 251.762 721.585 249.512 719.785 246.962L726.135 246.962L726.135 239.887L718.26 239.887L718.26 237.437L727.985 237.437L727.985 235.712L718.26 235.712L718.26 233.212L716.41 233.212L716.41 235.712L706.635 235.712ZM724.335 245.312L718.26 245.312L718.26 241.587L724.335 241.587L724.335 245.312ZM716.41 245.312L710.385 245.312L710.385 241.587L716.41 241.587L716.41 245.312Z"/>
<path d="M736.36 242.637C736.985 243.612 737.735 244.912 738.635 246.537L739.685 244.962C738.585 243.412 737.46 242.012 736.36 240.737L736.36 239.312L739.085 239.312L739.085 237.662L736.36 237.662L736.36 233.137L734.685 233.137L734.685 237.662L731.61 237.662L731.61 239.312L734.56 239.312C733.835 242.412 732.61 245.162 730.86 247.612L731.635 249.587C732.885 247.587 733.91 245.337 734.685 242.887L734.685 256.012L736.36 256.012L736.36 242.637ZM740.16 237.462L740.16 243.312L752.91 243.312L752.91 237.462L749.21 237.462L749.21 235.612L753.36 235.612L753.36 234.062L739.51 234.062L739.51 235.612L743.835 235.612L743.835 237.462L740.16 237.462ZM747.71 235.612L747.71 237.462L745.335 237.462L745.335 235.612L747.71 235.612ZM751.335 241.912L749.085 241.912L749.085 238.837L751.335 238.837L751.335 241.912ZM747.685 241.912L745.36 241.912L745.36 238.837L747.685 238.837L747.685 241.912ZM743.96 241.912L741.735 241.912L741.735 238.837L743.96 238.837L743.96 241.912ZM740.81 244.862L740.81 246.412L752.41 246.412L752.41 244.862L740.81 244.862ZM739.66 248.112L739.66 249.662L745.56 249.662L745.56 255.987L747.21 255.987L747.21 249.662L753.41 249.662L753.41 248.112L739.66 248.112ZM742.485 250.637C741.385 252.137 740.06 253.437 738.485 254.537L739.51 255.862C741.135 254.662 742.51 253.237 743.635 251.637L742.485 250.637ZM750.185 250.662L749.085 251.712C750.635 253.162 751.86 254.512 752.735 255.787L753.935 254.612C752.935 253.312 751.685 251.987 750.185 250.662Z"/>
<path d="M778.66 249.087L776.86 248.487C776.76 250.512 776.585 251.862 776.335 252.537C776.06 253.237 775.485 253.587 774.585 253.587L769.635 253.587C768.985 253.562 768.66 253.212 768.66 252.562L768.66 244.112L776.885 244.112L776.885 234.162L766.185 234.162L766.185 235.912L775.11 235.912L775.11 242.362L766.885 242.362L766.885 253.237C766.885 254.637 767.56 255.337 768.91 255.337L774.885 255.337C776.26 255.337 777.185 254.937 777.635 254.162C778.11 253.387 778.46 251.687 778.66 249.087ZM758.485 254.487L762.885 254.487L762.885 255.662L764.61 255.662L764.61 247.237L756.76 247.237L756.76 256.062L758.485 256.062L758.485 254.487ZM762.885 252.837L758.485 252.837L758.485 248.862L762.885 248.862L762.885 252.837ZM756.01 236.412L756.01 238.087L765.285 238.087L765.285 236.412L760.86 236.412L761.735 236.087C761.41 235.187 760.96 234.162 760.385 233.062L758.66 233.537C759.21 234.437 759.685 235.412 760.085 236.412L756.01 236.412ZM756.96 240.062L756.96 241.662L764.385 241.662L764.385 240.062L756.96 240.062ZM756.96 243.512L756.96 245.137L764.385 245.137L764.385 243.512L756.96 243.512Z"/>
</g>
<g fill="#d05400" opacity="1" stroke="none">
<path d="M227.973 76.9407L227.973 78.5907L211.248 78.5907L211.248 76.9407L227.973 76.9407ZM211.248 79.8407L219.948 79.8407L219.948 83.8907L221.598 83.8907L221.598 79.8407L229.648 79.8407L229.648 75.6407L209.548 75.6407L209.548 86.2407C209.523 90.4407 208.948 93.8907 207.798 96.5657L209.123 97.7657C210.523 94.5657 211.223 90.7157 211.248 86.2407L211.248 79.8407ZM213.498 80.3907L213.023 81.3157C214.723 81.4657 216.398 81.6657 217.998 81.9657L218.398 80.9657C216.823 80.7157 215.198 80.5157 213.498 80.3907ZM218.098 82.4657C216.898 82.6657 215.073 82.8407 212.598 82.9657L212.898 84.0157C215.448 83.8657 217.298 83.6657 218.448 83.4407L218.098 82.4657ZM223.423 81.9407C225.448 81.7907 227.223 81.5907 228.723 81.3407L228.348 80.3157C226.848 80.6157 225.123 80.8157 223.223 80.9157L223.423 81.9407ZM223.423 82.4657L222.923 83.3907C224.923 83.5407 226.848 83.7907 228.698 84.0907L229.098 83.0657C227.298 82.7907 225.398 82.5907 223.423 82.4657ZM213.248 84.5907L213.248 88.1157L215.673 88.1157C214.673 89.3907 213.073 90.4407 210.923 91.2907L211.723 92.6157C213.173 91.9657 214.423 91.2157 215.473 90.3407L219.298 90.3407L219.298 91.3657L214.123 91.3657L214.123 94.7657L219.298 94.7657L219.298 95.9657C217.173 96.0907 214.998 96.1907 212.773 96.2907L213.123 97.5907C217.123 97.3407 220.898 97.0657 224.448 96.7657C224.548 96.9657 224.673 97.1907 224.773 97.4407L224.923 97.3907L225.098 98.0907C225.698 98.1157 226.123 98.1407 226.373 98.1407C228.123 98.1407 229.123 97.4657 229.323 96.1657C229.548 95.2657 229.673 92.8907 229.673 89.0907L216.723 89.0907C216.973 88.7907 217.198 88.4657 217.423 88.1157L228.523 88.1157L228.523 84.5907L213.248 84.5907ZM220.848 95.8657L220.848 94.7657L223.298 94.7657C223.473 95.0407 223.648 95.3407 223.848 95.6407L220.848 95.8657ZM224.848 94.7657L226.023 94.7657L226.023 91.3657L220.848 91.3657L220.848 90.3407L227.998 90.3407C227.948 93.2407 227.848 94.9907 227.698 95.5907C227.548 96.3657 227.048 96.7657 226.173 96.7657L226.073 96.7657C225.773 96.1657 225.348 95.4907 224.848 94.7657ZM226.873 87.0907L223.898 87.0907L223.898 85.5907L226.873 85.5907L226.873 87.0907ZM222.298 87.0907L219.348 87.0907L219.348 85.5907L222.298 85.5907L222.298 87.0907ZM217.798 87.0907L214.898 87.0907L214.898 85.5907L217.798 85.5907L217.798 87.0907ZM224.448 93.7407L220.848 93.7407L220.848 92.3907L224.448 92.3907L224.448 93.7407ZM219.298 93.7407L215.698 93.7407L215.698 92.3907L219.298 92.3907L219.298 93.7407Z"/>
<path d="M233.523 79.9407C233.448 82.3407 233.148 84.6157 232.623 86.7657L234.098 87.1907C234.598 84.9407 234.898 82.5407 234.948 80.0407L233.523 79.9407ZM239.798 79.4157L238.473 79.8407C239.048 81.2407 239.523 82.7157 239.898 84.2407L241.148 83.9157C240.923 84.4157 240.673 84.9407 240.398 85.4907L241.723 86.6907C242.598 85.1407 243.273 83.4407 243.723 81.6157L247.623 81.6157L247.623 87.6657L241.898 87.6657L241.898 89.4407L247.623 89.4407L247.623 95.5407L240.473 95.5407L240.473 97.2907L255.573 97.2907L255.573 95.5407L249.473 95.5407L249.473 89.4407L254.548 89.4407L254.548 87.6657L249.473 87.6657L249.473 81.6157L254.923 81.6157L254.923 79.8907L249.473 79.8907L249.473 75.2157L247.623 75.2157L247.623 79.8907L244.048 79.8907C244.198 78.9407 244.298 77.9407 244.348 76.8907L242.723 76.6657C242.598 79.1407 242.098 81.4657 241.248 83.6407C240.823 82.0407 240.348 80.6407 239.798 79.4157ZM236.223 75.1907L236.223 97.9407L238.048 97.9407L238.048 75.1907L236.223 75.1907Z"/>
</g>
<g fill="#69287a" opacity="1" stroke="none">
<path d="M402.371 76.9407L402.371 78.5907L385.646 78.5907L385.646 76.9407L402.371 76.9407ZM385.646 79.8407L394.346 79.8407L394.346 83.8907L395.996 83.8907L395.996 79.8407L404.046 79.8407L404.046 75.6407L383.946 75.6407L383.946 86.2407C383.921 90.4407 383.346 93.8907 382.196 96.5657L383.521 97.7657C384.921 94.5657 385.621 90.7157 385.646 86.2407L385.646 79.8407ZM387.896 80.3907L387.421 81.3157C389.121 81.4657 390.796 81.6657 392.396 81.9657L392.796 80.9657C391.221 80.7157 389.596 80.5157 387.896 80.3907ZM392.496 82.4657C391.296 82.6657 389.471 82.8407 386.996 82.9657L387.296 84.0157C389.846 83.8657 391.696 83.6657 392.846 83.4407L392.496 82.4657ZM397.821 81.9407C399.846 81.7907 401.621 81.5907 403.121 81.3407L402.746 80.3157C401.246 80.6157 399.521 80.8157 397.621 80.9157L397.821 81.9407ZM397.821 82.4657L397.321 83.3907C399.321 83.5407 401.246 83.7907 403.096 84.0907L403.496 83.0657C401.696 82.7907 399.796 82.5907 397.821 82.4657ZM387.646 84.5907L387.646 88.1157L390.071 88.1157C389.071 89.3907 387.471 90.4407 385.321 91.2907L386.121 92.6157C387.571 91.9657 388.821 91.2157 389.871 90.3407L393.696 90.3407L393.696 91.3657L388.521 91.3657L388.521 94.7657L393.696 94.7657L393.696 95.9657C391.571 96.0907 389.396 96.1907 387.171 96.2907L387.521 97.5907C391.521 97.3407 395.296 97.0657 398.846 96.7657C398.946 96.9657 399.071 97.1907 399.171 97.4407L399.321 97.3907L399.496 98.0907C400.096 98.1157 400.521 98.1407 400.771 98.1407C402.521 98.1407 403.521 97.4657 403.721 96.1657C403.946 95.2657 404.071 92.8907 404.071 89.0907L391.121 89.0907C391.371 88.7907 391.596 88.4657 391.821 88.1157L402.921 88.1157L402.921 84.5907L387.646 84.5907ZM395.246 95.8657L395.246 94.7657L397.696 94.7657C397.871 95.0407 398.046 95.3407 398.246 95.6407L395.246 95.8657ZM399.246 94.7657L400.421 94.7657L400.421 91.3657L395.246 91.3657L395.246 90.3407L402.396 90.3407C402.346 93.2407 402.246 94.9907 402.096 95.5907C401.946 96.3657 401.446 96.7657 400.571 96.7657L400.471 96.7657C400.171 96.1657 399.746 95.4907 399.246 94.7657ZM401.271 87.0907L398.296 87.0907L398.296 85.5907L401.271 85.5907L401.271 87.0907ZM396.696 87.0907L393.746 87.0907L393.746 85.5907L396.696 85.5907L396.696 87.0907ZM392.196 87.0907L389.296 87.0907L389.296 85.5907L392.196 85.5907L392.196 87.0907ZM398.846 93.7407L395.246 93.7407L395.246 92.3907L398.846 92.3907L398.846 93.7407ZM393.696 93.7407L390.096 93.7407L390.096 92.3907L393.696 92.3907L393.696 93.7407Z"/>
<path d="M407.921 79.9407C407.846 82.3407 407.546 84.6157 407.021 86.7657L408.496 87.1907C408.996 84.9407 409.296 82.5407 409.346 80.0407L407.921 79.9407ZM414.196 79.4157L412.871 79.8407C413.446 81.2407 413.921 82.7157 414.296 84.2407L415.546 83.9157C415.321 84.4157 415.071 84.9407 414.796 85.4907L416.121 86.6907C416.996 85.1407 417.671 83.4407 418.121 81.6157L422.021 81.6157L422.021 87.6657L416.296 87.6657L416.296 89.4407L422.021 89.4407L422.021 95.5407L414.871 95.5407L414.871 97.2907L429.971 97.2907L429.971 95.5407L423.871 95.5407L423.871 89.4407L428.946 89.4407L428.946 87.6657L423.871 87.6657L423.871 81.6157L429.321 81.6157L429.321 79.8907L423.871 79.8907L423.871 75.2157L422.021 75.2157L422.021 79.8907L418.446 79.8907C418.596 78.9407 418.696 77.9407 418.746 76.8907L417.121 76.6657C416.996 79.1407 416.496 81.4657 415.646 83.6407C415.221 82.0407 414.746 80.6407 414.196 79.4157ZM410.621 75.1907L410.621 97.9407L412.446 97.9407L412.446 75.1907L410.621 75.1907Z"/>
<path d="M446.471 75.0157C446.421 75.8157 446.346 76.6407 446.271 77.4657L439.696 77.4657L439.696 79.1157L446.096 79.1157C445.996 79.8407 445.871 80.5657 445.771 81.2907L441.196 81.2907L441.196 95.6407L438.621 95.6407L438.621 97.2907L454.996 97.2907L454.996 95.6407L452.621 95.6407L452.621 81.2907L447.546 81.2907C447.646 80.5907 447.771 79.8657 447.871 79.1157L454.271 79.1157L454.271 77.4657L448.071 77.4657C448.121 76.7657 448.196 76.0157 448.246 75.2657L446.471 75.0157ZM442.921 95.6407L442.921 93.4407L450.896 93.4407L450.896 95.6407L442.921 95.6407ZM442.921 91.9907L442.921 89.8907L450.896 89.8907L450.896 91.9907L442.921 91.9907ZM442.921 88.4407L442.921 86.3907L450.896 86.3907L450.896 88.4407L442.921 88.4407ZM442.921 84.9407L442.921 82.9157L450.896 82.9157L450.896 84.9407L442.921 84.9407ZM435.546 83.5157L435.546 98.0407L437.296 98.0407L437.296 80.4407C438.021 78.9657 438.646 77.4157 439.146 75.7907L437.521 75.0407C436.421 78.8907 434.621 82.3157 432.146 85.2907L432.746 87.1907C433.771 86.0407 434.696 84.8157 435.546 83.5157Z"/>
</g>
</g>
<g fill="#69287a" opacity="1" stroke="none">
<path d="M32.3754 26.0692L32.3754 28.2192L47.1004 28.2192L47.1004 26.0692L40.8254 26.0692C40.5504 25.1942 40.2754 24.3942 39.9754 23.6942L37.4504 24.0942C37.8004 24.6942 38.1004 25.3692 38.4004 26.0692L32.3754 26.0692ZM34.3254 29.7442L34.3254 31.6192L45.2504 31.6192L45.2504 29.7442L34.3254 29.7442ZM34.3254 33.1692L34.3254 35.0442L45.2504 35.0442L45.2504 33.1692L34.3254 33.1692ZM33.8004 36.6192L33.8004 43.0692L45.8254 43.0692L45.8254 36.6192L33.8004 36.6192ZM43.5004 41.1192L36.1254 41.1192L36.1254 38.5442L43.5004 38.5442L43.5004 41.1192ZM27.3504 23.8692L25.7754 25.3692C27.4254 26.6692 28.7004 27.8692 29.6254 28.9942L31.1754 27.4442C30.1254 26.2442 28.8504 25.0692 27.3504 23.8692ZM25.1504 29.8442L25.1504 31.9942L28.5254 31.9942C27.7254 33.1942 26.7504 34.4692 25.5754 35.7692L25.5754 37.5692L29.2004 37.5692C28.9254 38.9442 28.5504 40.2192 28.0754 41.3942C27.0254 41.7942 25.9254 43.0692 24.7754 45.2192L26.5004 46.7942C27.6004 44.6442 28.4004 43.5692 28.9004 43.5692C29.1004 43.5692 29.3004 43.6442 29.4754 43.8442C30.3254 44.7192 31.2754 45.3692 32.3254 45.7942C33.2004 46.1442 34.5004 46.3692 36.2004 46.4192C37.8004 46.4692 39.4754 46.4942 41.2504 46.4942L47.3504 46.4942L47.8754 44.2692C45.0254 44.3692 42.7254 44.4442 40.9504 44.4442C39.2004 44.4442 37.6504 44.4192 36.3004 44.3942C34.9004 44.3442 33.8504 44.1942 33.1004 43.8942C32.3504 43.5692 31.6004 43.0192 30.8254 42.2442C30.6004 42.0442 30.4004 41.8942 30.2254 41.7692C30.6754 40.5442 31.0754 38.9942 31.4254 37.1442L31.4254 35.5692L28.4004 35.5692C29.4504 34.2942 30.3754 32.9942 31.1754 31.6942L31.1754 29.8442L25.1504 29.8442Z"/>
<path d="M53.6254 24.4942L53.6254 33.5192L69.1504 33.5192L69.1504 24.4942L53.6254 24.4942ZM66.8004 31.4942L55.9754 31.4942L55.9754 29.9442L66.8004 29.9442L66.8004 31.4942ZM55.9754 28.0692L55.9754 26.5192L66.8004 26.5192L66.8004 28.0692L55.9754 28.0692ZM60.4254 37.1192L60.4254 43.8692C60.0504 43.7692 59.7254 43.6942 59.4254 43.5942C58.1754 43.1692 57.0754 42.1942 56.0754 40.6442C56.3754 39.8442 56.6504 39.0192 56.9004 38.1192L54.6504 37.7442C53.8504 40.6942 52.3004 43.0692 50.0504 44.8442L51.6004 46.7942C53.0504 45.6442 54.2504 44.1942 55.2004 42.4942C56.1754 43.9692 57.2754 44.9692 58.4754 45.4942C60.0004 46.0942 62.8254 46.4192 66.9754 46.4442C68.3754 46.4692 69.9754 46.4942 71.7254 46.4942L72.3754 44.2692C70.8754 44.3192 69.0004 44.3692 66.8004 44.3692C65.3004 44.3692 63.9504 44.3192 62.8004 44.2192L62.8004 41.5442L69.8004 41.5442L69.8004 39.4442L62.8004 39.4442L62.8004 37.1192L72.4754 37.1192L72.4754 34.9692L50.2004 34.9692L50.2004 37.1192L60.4254 37.1192Z"/>
<path d="M75.0004 33.8942L75.0004 36.2442L97.6254 36.2442L97.6254 33.8942L75.0004 33.8942Z"/>
<path d="M105.2 23.6942C104 27.5192 102.175 30.8692 99.6754 33.7192L100.425 36.1942C101.225 35.3442 101.975 34.4692 102.675 33.5692L102.675 46.8442L105.025 46.8442L105.025 29.9942C105.975 28.3192 106.725 26.5442 107.325 24.6942L105.2 23.6942ZM122.2 24.5442L107.575 24.5442L107.575 46.7942L109.7 46.7942L109.7 45.3692L120.05 45.3692L120.05 46.7942L122.2 46.7942L122.2 24.5442ZM109.7 43.2692L109.7 26.5942L120.05 26.5942L120.05 43.2692L109.7 43.2692ZM110.575 30.2192L110.575 32.2442L113.9 32.2442L113.9 34.7692L111.5 34.7692L111.5 42.0442L118.4 42.0442L118.4 34.7692L115.925 34.7692L115.925 32.2442L119.225 32.2442L119.225 30.2192L115.925 30.2192L115.925 27.6442L113.9 27.6442L113.9 30.2192L110.575 30.2192ZM116.55 40.2442L113.325 40.2442L113.325 36.5692L116.55 36.5692L116.55 40.2442Z"/>
<path d="M127.5 24.9442L127.5 27.2442L144.925 27.2442L144.925 24.9442L127.5 24.9442ZM125.575 32.2942L125.575 34.5942L131.85 34.5942L131.85 35.0442C131.75 37.5692 131.225 39.6192 130.275 41.2192C129.3 42.6942 127.475 43.9192 124.775 44.8942L126.05 46.8942C128.85 45.8942 130.85 44.5192 132.1 42.7442C133.35 40.8192 134.05 38.2442 134.15 35.0442L134.15 34.5942L138.1 34.5942L138.1 43.7942C138.1 45.5442 138.95 46.4192 140.65 46.4192L144.525 46.4192C145.425 46.4192 146.075 46.1442 146.525 45.6442C146.975 45.0942 147.3 43.4442 147.475 40.6442L145.325 39.9442C145.275 42.0442 145.125 43.2942 144.9 43.7192C144.725 44.0942 144.45 44.2942 144.075 44.2942L141.325 44.2942C140.7 44.2942 140.4 43.9442 140.4 43.2942L140.4 34.5942L147.1 34.5942L147.1 32.2942L125.575 32.2942Z"/>
<path d="M151.575 25.2942L151.575 27.2192L160.2 27.2192L160.2 28.4942L152.625 28.4942L152.625 30.3442L160.2 30.3442L160.2 31.5942L150.5 31.5942L150.5 33.5692L158.075 33.5692C156.775 34.4942 155.675 35.1192 154.775 35.4192C154.35 35.6192 153.9 35.7192 153.45 35.7692L153.85 37.4692C155.9 37.3692 157.875 37.2942 159.75 37.1942C157.6 38.1192 155.45 38.8692 153.275 39.4692C152.825 39.4192 152.425 39.3942 152.025 39.3442L152.5 41.2942L155.2 41.1942C156.45 41.1942 158.15 41.1192 160.325 41.0192L160.325 44.0942C160.325 44.5942 160.075 44.8692 159.625 44.8692C158.975 44.8692 158.275 44.8192 157.55 44.7442L158.025 46.8442L160.4 46.8442C161.875 46.8442 162.625 46.0942 162.625 44.5942L162.625 40.8942C164.325 40.7942 166.25 40.6692 168.425 40.5192C168.9 41.0692 169.325 41.6192 169.725 42.1692L171.4 41.0192C170.425 39.7192 169.025 38.1942 167.2 36.4692L165.575 37.4692C166.075 37.9692 166.55 38.4692 167.05 38.9692C163.375 39.2692 160.225 39.4692 157.575 39.5692C160.975 38.4692 164.35 36.9942 167.7 35.1442L165.875 33.9442C164.875 34.5442 163.875 35.1192 162.875 35.6692C160.9 35.7692 158.925 35.8442 156.975 35.9192C158.275 35.2692 159.575 34.4942 160.825 33.5692L172.175 33.5692L172.175 31.5942L162.55 31.5942L162.55 30.3442L170.025 30.3442L170.025 28.4942L162.55 28.4942L162.55 27.2192L171.075 27.2192L171.075 25.2942L162.55 25.2942L162.55 23.6942L160.2 23.6942L160.2 25.2942L151.575 25.2942ZM157.05 41.6692C155.275 42.8192 153 43.7692 150.225 44.4942L151.15 46.4442C154 45.5692 156.425 44.4692 158.375 43.1692L157.05 41.6692ZM165.325 41.5942L164.2 43.2442C166.6 44.0442 168.95 45.1442 171.225 46.5192L172.4 44.7192C170.25 43.4942 167.9 42.4442 165.325 41.5942Z"/>
<path d="M178.8 23.5692C177.625 25.1942 176.725 26.8942 176.1 28.6942C175.325 30.7942 174.95 32.9942 174.95 35.2692C174.95 37.5192 175.325 39.6942 176.1 41.8192C176.725 43.5692 177.625 45.2692 178.8 46.9192L181.025 46.9192C179.975 45.1942 179.175 43.4692 178.625 41.7442C177.875 39.5692 177.525 37.3942 177.525 35.2442C177.525 33.0692 177.875 30.8942 178.625 28.7442C179.175 26.9942 179.975 25.2692 181.025 23.5692L178.8 23.5692Z"/>
<path d="M183.9 26.3942L183.9 44.2442L197.15 44.2442L197.15 41.9192L186.625 41.9192L186.625 36.2442L196.125 36.2442L196.125 33.9192L186.625 33.9192L186.625 28.7192L196.725 28.7192L196.725 26.3942L183.9 26.3942Z"/>
<path d="M199.975 26.0442L199.975 44.2442L202.625 44.2442L202.625 26.0442L199.975 26.0442Z"/>
<path d="M211.4 30.9692C209.5 30.9692 207.975 31.6192 206.875 32.9442C205.725 34.2442 205.175 35.8442 205.175 37.7692C205.175 39.8942 205.775 41.5692 206.975 42.8192C208.075 43.9942 209.6 44.5942 211.5 44.5942C213.225 44.5942 214.65 44.0942 215.775 43.1192C216.675 42.3192 217.25 41.2942 217.55 40.0942L214.9 40.0942C214.55 40.8442 214.175 41.4192 213.725 41.7692C213.15 42.1942 212.4 42.4192 211.475 42.4192C210.425 42.4192 209.6 42.0692 209 41.4192C208.4 40.7442 208.075 39.7692 207.975 38.5192L217.775 38.5192C217.75 36.2192 217.225 34.4192 216.225 33.1192C215.125 31.6692 213.5 30.9692 211.4 30.9692ZM211.475 33.1442C213.575 33.1442 214.75 34.2692 215 36.5192L208.025 36.5192C208.175 35.4192 208.55 34.5942 209.1 34.0192C209.7 33.4192 210.475 33.1442 211.475 33.1442Z"/>
<path d="M226.225 30.9692C224.925 30.9692 223.725 31.5442 222.675 32.7442L222.675 31.3192L220.025 31.3192L220.025 44.2442L222.675 44.2442L222.675 36.4692C222.675 35.5692 222.925 34.7942 223.475 34.1692C223.975 33.5192 224.675 33.1942 225.525 33.1942C227.275 33.1942 228.175 34.1942 228.175 36.2442L228.175 44.2442L230.825 44.2442L230.825 36.2942C230.825 35.3442 231.075 34.5692 231.575 34.0192C232.075 33.4692 232.675 33.1942 233.425 33.1942C234.425 33.1942 235.175 33.4192 235.625 33.9192C236.075 34.3942 236.3 35.1692 236.3 36.2192L236.3 44.2442L238.95 44.2442L238.95 35.7692C238.95 34.3192 238.5 33.1692 237.65 32.2942C236.775 31.3942 235.675 30.9692 234.35 30.9692C233.475 30.9692 232.75 31.1192 232.15 31.4442C231.5 31.7692 230.875 32.3442 230.3 33.1442C229.5 31.6942 228.125 30.9692 226.225 30.9692Z"/>
<path d="M247.425 30.9692C245.525 30.9692 244 31.6192 242.9 32.9442C241.75 34.2442 241.2 35.8442 241.2 37.7692C241.2 39.8942 241.8 41.5692 243 42.8192C244.1 43.9942 245.625 44.5942 247.525 44.5942C249.25 44.5942 250.675 44.0942 251.8 43.1192C252.7 42.3192 253.275 41.2942 253.575 40.0942L250.925 40.0942C250.575 40.8442 250.2 41.4192 249.75 41.7692C249.175 42.1942 248.425 42.4192 247.5 42.4192C246.45 42.4192 245.625 42.0692 245.025 41.4192C244.425 40.7442 244.1 39.7692 244 38.5192L253.8 38.5192C253.775 36.2192 253.25 34.4192 252.25 33.1192C251.15 31.6692 249.525 30.9692 247.425 30.9692ZM247.5 33.1442C249.6 33.1442 250.775 34.2692 251.025 36.5192L244.05 36.5192C244.2 35.4192 244.575 34.5942 245.125 34.0192C245.725 33.4192 246.5 33.1442 247.5 33.1442Z"/>
<path d="M262.6 30.9692C261.8 30.9692 261.075 31.1192 260.425 31.4692C259.775 31.7942 259.2 32.2692 258.7 32.9192L258.7 31.3192L256.05 31.3192L256.05 44.2442L258.7 44.2442L258.7 36.4692C258.8 35.4192 259.175 34.5942 259.775 33.9942C260.325 33.4442 261 33.1942 261.75 33.1942C263.75 33.1942 264.775 34.2942 264.775 36.4942L264.775 44.2442L267.425 44.2442L267.425 36.2692C267.425 32.7192 265.8 30.9692 262.6 30.9692Z"/>
<path d="M274.375 27.1442L271.725 28.2442L271.725 31.3192L269.325 31.3192L269.325 33.5192L271.725 33.5192L271.725 41.0192C271.725 42.0442 271.95 42.8192 272.45 43.3692C272.95 43.9442 273.775 44.2442 274.875 44.2442L277 44.2442L277 42.0442L275.3 42.0442C274.975 42.0442 274.75 41.9442 274.6 41.7942C274.45 41.6192 274.375 41.3692 274.375 41.0192L274.375 33.5192L277.325 33.5192L277.325 31.3192L274.375 31.3192L274.375 27.1442Z"/>
<path d="M279.075 23.5692C280.1 25.2692 280.9 26.9942 281.475 28.7442C282.2 30.8942 282.575 33.0692 282.575 35.2442C282.575 37.3942 282.2 39.5692 281.475 41.7442C280.9 43.4692 280.1 45.1942 279.075 46.9192L281.3 46.9192C282.45 45.2692 283.35 43.5692 284 41.8192C284.75 39.6942 285.15 37.5192 285.15 35.2692C285.15 32.9942 284.75 30.7942 284 28.6942C283.35 26.8942 282.45 25.1942 281.3 23.5692L279.075 23.5692Z"/>
</g>
</g>
</svg>
